<svg xmlns="http://www.w3.org/2000/svg" width="920" height="440" viewBox="0 0 920 440">
<rect width="100%" height="100%" fill="white"/>
<text x="460.0" y="28" text-anchor="middle" font-family="Arial" font-size="18" font-weight="700">Magnitud absoluta de delta NDCG@10 vs baseline semantico</text>
<line x1="70" y1="335" x2="890" y2="335" stroke="#333"/>
<line x1="70" y1="55" x2="70" y2="335" stroke="#333"/>
<text transform="translate(18 195.0) rotate(-90)" text-anchor="middle" font-family="Arial" font-size="12">|Delta NDCG@10|</text>
<line x1="66" y1="335.0" x2="890" y2="335.0" stroke="#eeeeee"/>
<text x="62" y="339.0" text-anchor="end" font-family="Arial" font-size="11">0.0</text>
<line x1="66" y1="279.0" x2="890" y2="279.0" stroke="#eeeeee"/>
<text x="62" y="283.0" text-anchor="end" font-family="Arial" font-size="11">0.2</text>
<line x1="66" y1="223.0" x2="890" y2="223.0" stroke="#eeeeee"/>
<text x="62" y="227.0" text-anchor="end" font-family="Arial" font-size="11">0.4</text>
<line x1="66" y1="167.0" x2="890" y2="167.0" stroke="#eeeeee"/>
<text x="62" y="171.0" text-anchor="end" font-family="Arial" font-size="11">0.6</text>
<line x1="66" y1="111.0" x2="890" y2="111.0" stroke="#eeeeee"/>
<text x="62" y="115.0" text-anchor="end" font-family="Arial" font-size="11">0.8</text>
<line x1="66" y1="55.0" x2="890" y2="55.0" stroke="#eeeeee"/>
<text x="62" y="59.0" text-anchor="end" font-family="Arial" font-size="11">1.0</text>
<rect x="70.0" y="333.6" width="197.5" height="1.4" fill="#4C78A8"/>
<text x="168.8" y="328.6" text-anchor="middle" font-family="Arial" font-size="11">0.0</text>
<text transform="translate(168.8 351) rotate(35)" text-anchor="start" font-family="Arial" font-size="11">6_SOTA_Completo</text>
<rect x="277.5" y="329.5" width="197.5" height="5.5" fill="#F58518"/>
<text x="376.2" y="324.5" text-anchor="middle" font-family="Arial" font-size="11">0.0</text>
<text transform="translate(376.2 351) rotate(35)" text-anchor="start" font-family="Arial" font-size="11">3_Híbrido_Simple</text>
<rect x="485.0" y="334.5" width="197.5" height="0.5" fill="#54A24B"/>
<text x="583.8" y="329.5" text-anchor="middle" font-family="Arial" font-size="11">0.0</text>
<text transform="translate(583.8 351) rotate(35)" text-anchor="start" font-family="Arial" font-size="11">5_Semántico_Expandido</text>
<rect x="692.5" y="330.6" width="197.5" height="4.4" fill="#E45756"/>
<text x="791.2" y="325.6" text-anchor="middle" font-family="Arial" font-size="11">0.0</text>
<text transform="translate(791.2 351) rotate(35)" text-anchor="start" font-family="Arial" font-size="11">4_Híbrido_Reranker</text>
</svg>