<svg xmlns="http://www.w3.org/2000/svg" width="920" height="460" viewBox="0 0 920 460">
<rect width="100%" height="100%" fill="white"/>
<text x="460.0" y="30" text-anchor="middle" font-family="Arial" font-size="19" font-weight="700">Telemetria operativa: calidad vs latencia nube</text>
<line x1="85" y1="365" x2="885" y2="365" stroke="#333"/>
<line x1="85" y1="55" x2="85" y2="365" stroke="#333"/>
<text x="485.0" y="428" text-anchor="middle" font-family="Arial" font-size="13">Latencia promedio nube (segundos)</text>
<text transform="translate(24 210.0) rotate(-90)" text-anchor="middle" font-family="Arial" font-size="13">NDCG@10 nube</text>
<line x1="85.0" y1="55" x2="85.0" y2="365" stroke="#eeeeee"/>
<text x="85.0" y="383" text-anchor="middle" font-family="Arial" font-size="11">0.0</text>
<line x1="245.0" y1="55" x2="245.0" y2="365" stroke="#eeeeee"/>
<text x="245.0" y="383" text-anchor="middle" font-family="Arial" font-size="11">1.9</text>
<line x1="405.0" y1="55" x2="405.0" y2="365" stroke="#eeeeee"/>
<text x="405.0" y="383" text-anchor="middle" font-family="Arial" font-size="11">3.8</text>
<line x1="565.0" y1="55" x2="565.0" y2="365" stroke="#eeeeee"/>
<text x="565.0" y="383" text-anchor="middle" font-family="Arial" font-size="11">5.6</text>
<line x1="725.0" y1="55" x2="725.0" y2="365" stroke="#eeeeee"/>
<text x="725.0" y="383" text-anchor="middle" font-family="Arial" font-size="11">7.5</text>
<line x1="885.0" y1="55" x2="885.0" y2="365" stroke="#eeeeee"/>
<text x="885.0" y="383" text-anchor="middle" font-family="Arial" font-size="11">9.4</text>
<line x1="81" y1="365.0" x2="885" y2="365.0" stroke="#eeeeee"/>
<text x="77" y="369.0" text-anchor="end" font-family="Arial" font-size="11">0.70</text>
<line x1="81" y1="303.0" x2="885" y2="303.0" stroke="#eeeeee"/>
<text x="77" y="307.0" text-anchor="end" font-family="Arial" font-size="11">0.73</text>
<line x1="81" y1="241.0" x2="885" y2="241.0" stroke="#eeeeee"/>
<text x="77" y="245.0" text-anchor="end" font-family="Arial" font-size="11">0.76</text>
<line x1="81" y1="179.0" x2="885" y2="179.0" stroke="#eeeeee"/>
<text x="77" y="183.0" text-anchor="end" font-family="Arial" font-size="11">0.80</text>
<line x1="81" y1="117.0" x2="885" y2="117.0" stroke="#eeeeee"/>
<text x="77" y="121.0" text-anchor="end" font-family="Arial" font-size="11">0.83</text>
<line x1="81" y1="55.0" x2="885" y2="55.0" stroke="#eeeeee"/>
<text x="77" y="59.0" text-anchor="end" font-family="Arial" font-size="11">0.86</text>
<circle cx="110.9" cy="336.2" r="7" fill="#6b7280" stroke="#111" stroke-width="1"/>
<text x="122.9" y="327.2" font-family="Arial" font-size="12">1</text>
<circle cx="108.9" cy="83.8" r="9" fill="#2563eb" stroke="#111" stroke-width="1"/>
<text x="120.9" y="74.8" font-family="Arial" font-size="12">2</text>
<circle cx="128.3" cy="121.3" r="7" fill="#059669" stroke="#111" stroke-width="1"/>
<text x="140.3" y="112.3" font-family="Arial" font-size="12">3</text>
<circle cx="325.9" cy="113.7" r="7" fill="#d97706" stroke="#111" stroke-width="1"/>
<text x="337.9" y="104.7" font-family="Arial" font-size="12">4</text>
<circle cx="497.7" cy="87.2" r="7" fill="#7c3aed" stroke="#111" stroke-width="1"/>
<text x="509.7" y="78.2" font-family="Arial" font-size="12">5</text>
<circle cx="885.0" cy="93.3" r="7" fill="#dc2626" stroke="#111" stroke-width="1"/>
<text x="897.0" y="84.3" font-family="Arial" font-size="12">6</text>
<text x="100" y="77" font-family="Arial" font-size="12" fill="#2563eb">El candidato 2 domina por Pareto operativo: calidad alta con menor latencia.</text>
</svg>