<svg xmlns="http://www.w3.org/2000/svg" width="900" height="430" viewBox="0 0 900 430">
<rect width="100%" height="100%" fill="white"/>
<text x="450.0" y="30" text-anchor="middle" font-family="Arial" font-size="19" font-weight="700">Top-2 por dominio regulatorio: ganador operativo vs escalamiento</text>
<line x1="85" y1="330" x2="860" y2="330" stroke="#333"/>
<line x1="85" y1="60" x2="85" y2="330" stroke="#333"/>
<text transform="translate(24 195.0) rotate(-90)" text-anchor="middle" font-family="Arial" font-size="12">NDCG@10</text>
<line x1="81" y1="330.0" x2="860" y2="330.0" stroke="#eeeeee"/>
<text x="75" y="334.0" text-anchor="end" font-family="Arial" font-size="11">0.0</text>
<line x1="81" y1="276.0" x2="860" y2="276.0" stroke="#eeeeee"/>
<text x="75" y="280.0" text-anchor="end" font-family="Arial" font-size="11">0.2</text>
<line x1="81" y1="222.0" x2="860" y2="222.0" stroke="#eeeeee"/>
<text x="75" y="226.0" text-anchor="end" font-family="Arial" font-size="11">0.4</text>
<line x1="81" y1="168.0" x2="860" y2="168.0" stroke="#eeeeee"/>
<text x="75" y="172.0" text-anchor="end" font-family="Arial" font-size="11">0.6</text>
<line x1="81" y1="114.0" x2="860" y2="114.0" stroke="#eeeeee"/>
<text x="75" y="118.0" text-anchor="end" font-family="Arial" font-size="11">0.8</text>
<line x1="81" y1="60.0" x2="860" y2="60.0" stroke="#eeeeee"/>
<text x="75" y="64.0" text-anchor="end" font-family="Arial" font-size="11">1.0</text>
<rect x="240" y="83.3" width="72" height="246.7" fill="#3568b8" rx="3"/>
<text x="276.0" y="77.3" text-anchor="middle" font-family="Arial" font-size="12" font-weight="700">0.914</text>
<rect x="330" y="79.0" width="72" height="251.0" fill="#d9822b" rx="3"/>
<text x="366.0" y="73.0" text-anchor="middle" font-family="Arial" font-size="12" font-weight="700">0.930</text>
<text x="321" y="358" text-anchor="middle" font-family="Arial" font-size="14" font-weight="700">Credito</text>
<text x="321" y="378" text-anchor="middle" font-family="Arial" font-size="12" fill="#555">Delta -0.016 (gana escalamiento)</text>
<rect x="460" y="108.6" width="72" height="221.4" fill="#3568b8" rx="3"/>
<text x="496.0" y="102.6" text-anchor="middle" font-family="Arial" font-size="12" font-weight="700">0.820</text>
<rect x="550" y="112.1" width="72" height="217.9" fill="#d9822b" rx="3"/>
<text x="586.0" y="106.1" text-anchor="middle" font-family="Arial" font-size="12" font-weight="700">0.807</text>
<text x="541" y="358" text-anchor="middle" font-family="Arial" font-size="14" font-weight="700">Liquidez</text>
<text x="541" y="378" text-anchor="middle" font-family="Arial" font-size="12" fill="#555">Delta +0.013 (gana operativo)</text>
<rect x="530" y="377" width="14" height="14" fill="#3568b8"/>
<text x="552" y="388" font-family="Arial" font-size="12">Ganador: 2_Baseline_Sem?ntico</text>
<rect x="530" y="397" width="14" height="14" fill="#d9822b"/>
<text x="552" y="408" font-family="Arial" font-size="12">Escalamiento: 6_SOTA_Completo</text>
</svg>